<svg width="1200" height="640" viewBox="0 0 1200 640" fill="none" xmlns="http://www.w3.org/2000/svg">
  <rect width="1200" height="640" rx="40" fill="#FFF7EA"/>
  <rect x="68" y="80" width="1064" height="480" rx="32" fill="#FFFFFF" stroke="#D8E6E1" stroke-width="2"/>
  <rect x="108" y="124" width="984" height="64" rx="22" fill="#F2F6F4"/>
  <circle cx="152" cy="156" r="11" fill="#146C6E"/>
  <circle cx="186" cy="156" r="11" fill="#FFCF7D"/>
  <circle cx="220" cy="156" r="11" fill="#DDEEEB"/>
  <rect x="108" y="224" width="268" height="136" rx="24" fill="#0F4046"/>
  <rect x="396" y="224" width="324" height="136" rx="24" fill="#FFFFFF" stroke="#D2E3DE" stroke-width="2"/>
  <rect x="740" y="224" width="352" height="136" rx="24" fill="#FFFFFF" stroke="#D2E3DE" stroke-width="2"/>
  <rect x="108" y="392" width="472" height="128" rx="24" fill="#FFFFFF" stroke="#D2E3DE" stroke-width="2"/>
  <rect x="604" y="392" width="488" height="128" rx="24" fill="#146C6E"/>
  <text x="140" y="274" fill="#FFF8EA" font-family="Helvetica, Arial, sans-serif" font-size="32" font-weight="700">running</text>
  <text x="140" y="312" fill="#DDEEEB" font-family="Helvetica, Arial, sans-serif" font-size="22">WIB-16 · StreamingTurn</text>
  <text x="140" y="340" fill="#DDEEEB" font-family="Helvetica, Arial, sans-serif" font-size="22">workspace ready</text>
  <text x="430" y="274" fill="#19464F" font-family="Helvetica, Arial, sans-serif" font-size="32" font-weight="700">retrying</text>
  <text x="430" y="312" fill="#5D7076" font-family="Helvetica, Arial, sans-serif" font-size="22">WIB-12 · due in 02:30</text>
  <text x="430" y="340" fill="#5D7076" font-family="Helvetica, Arial, sans-serif" font-size="22">backoff after tool timeout</text>
  <text x="774" y="274" fill="#19464F" font-family="Helvetica, Arial, sans-serif" font-size="32" font-weight="700">completed</text>
  <text x="774" y="312" fill="#5D7076" font-family="Helvetica, Arial, sans-serif" font-size="22">recent attempts and outcomes</text>
  <path d="M812 328C836 296 862 348 892 308C922 268 948 340 978 296C1000 264 1024 312 1048 280" stroke="#146C6E" stroke-width="8" stroke-linecap="round" stroke-linejoin="round"/>
  <text x="140" y="442" fill="#19464F" font-family="Helvetica, Arial, sans-serif" font-size="32" font-weight="700">health + controls</text>
  <text x="140" y="476" fill="#5D7076" font-family="Helvetica, Arial, sans-serif" font-size="22">start / stop, service liveness, connection state</text>
  <text x="636" y="442" fill="#FFF8EA" font-family="Helvetica, Arial, sans-serif" font-size="32" font-weight="700">totals</text>
  <text x="636" y="476" fill="#DDEEEB" font-family="Helvetica, Arial, sans-serif" font-size="22">token usage, seconds, rate limit snapshot</text>
</svg>
