<svg width="1200" height="640" viewBox="0 0 1200 640" fill="none" xmlns="http://www.w3.org/2000/svg">
  <rect width="1200" height="640" rx="40" fill="#FFF8EC"/>
  <circle cx="180" cy="92" r="92" fill="#FFD58F" fill-opacity="0.55"/>
  <circle cx="1040" cy="116" r="132" fill="#B7E5E1" fill-opacity="0.55"/>
  <circle cx="1030" cy="560" r="148" fill="#CFEDE8" fill-opacity="0.7"/>
  <rect x="72" y="168" width="248" height="112" rx="28" fill="#FFFFFF" stroke="#C9DED9" stroke-width="2"/>
  <rect x="72" y="328" width="248" height="112" rx="28" fill="#FFFFFF" stroke="#C9DED9" stroke-width="2"/>
  <rect x="72" y="488" width="248" height="84" rx="28" fill="#146C6E"/>
  <text x="108" y="224" fill="#19464F" font-family="Helvetica, Arial, sans-serif" font-size="34" font-weight="700">Tracker</text>
  <text x="108" y="262" fill="#5D7076" font-family="Helvetica, Arial, sans-serif" font-size="22">Linear project issues</text>
  <text x="108" y="384" fill="#19464F" font-family="Helvetica, Arial, sans-serif" font-size="34" font-weight="700">Symphony</text>
  <text x="108" y="422" fill="#5D7076" font-family="Helvetica, Arial, sans-serif" font-size="22">Dispatch, retry, lifecycle</text>
  <text x="108" y="540" fill="#FFF8EC" font-family="Helvetica, Arial, sans-serif" font-size="30" font-weight="700">Codex runtime</text>
  <rect x="438" y="128" width="324" height="384" rx="34" fill="#0F4046"/>
  <rect x="470" y="164" width="260" height="64" rx="22" fill="#185B61"/>
  <rect x="470" y="248" width="260" height="86" rx="22" fill="#1F6F75"/>
  <rect x="470" y="354" width="260" height="126" rx="24" fill="#F8F1E3"/>
  <text x="502" y="204" fill="#FDF8EF" font-family="Helvetica, Arial, sans-serif" font-size="30" font-weight="700">Console</text>
  <text x="502" y="286" fill="#FDF8EF" font-family="Helvetica, Arial, sans-serif" font-size="24">running / retrying / completed</text>
  <text x="502" y="332" fill="#D2EEE8" font-family="Helvetica, Arial, sans-serif" font-size="20">Snapshot is the UI contract</text>
  <text x="502" y="402" fill="#19464F" font-family="Helvetica, Arial, sans-serif" font-size="28" font-weight="700">Workspace</text>
  <text x="502" y="438" fill="#5D7076" font-family="Helvetica, Arial, sans-serif" font-size="20">stable cwd</text>
  <text x="502" y="466" fill="#5D7076" font-family="Helvetica, Arial, sans-serif" font-size="20">hooks</text>
  <path d="M320 224H410" stroke="#146C6E" stroke-width="8" stroke-linecap="round"/>
  <path d="M320 384H410" stroke="#146C6E" stroke-width="8" stroke-linecap="round"/>
  <path d="M320 530H410" stroke="#146C6E" stroke-width="8" stroke-linecap="round"/>
  <path d="M762 318H910" stroke="#146C6E" stroke-width="8" stroke-linecap="round"/>
  <path d="M960 318L914 290V346L960 318Z" fill="#146C6E"/>
  <rect x="908" y="218" width="224" height="204" rx="30" fill="#FFFFFF" stroke="#C9DED9" stroke-width="2"/>
  <text x="944" y="272" fill="#19464F" font-family="Helvetica, Arial, sans-serif" font-size="34" font-weight="700">Status</text>
  <text x="944" y="316" fill="#5D7076" font-family="Helvetica, Arial, sans-serif" font-size="22">health</text>
  <text x="944" y="350" fill="#5D7076" font-family="Helvetica, Arial, sans-serif" font-size="22">start / stop</text>
  <text x="944" y="384" fill="#5D7076" font-family="Helvetica, Arial, sans-serif" font-size="22">usage</text>
</svg>
